<svg xmlns="http://www.w3.org/2000/svg" xmlns:xlink="http://www.w3.org/1999/xlink" style="margin: auto; background: rgba(241, 242, 243, 0); display: block; z-index: 1; position: relative; shape-rendering: auto;" width="1920" height="1080" preserveAspectRatio="xMidYMid" viewBox="0 0 1920 1080">
<g transform="translate(960,540) scale(1,1) translate(-960,-540)"><defs>
  <path id="path-4brz4up7f5w-1" d="M-35 -35L35 -35L35 35L-35 35Z" fill="none" stroke="inherit" stroke-width="9.230769230769232" transform="scale(0.26)"></path>
  <path id="path-4brz4up7f5w-2" d="M0 -37A37 37 0 0 1 0 37A37 37 0 0 1 0 -37" fill="none" stroke="inherit" stroke-width="9.230769230769232" transform="scale(0.26)"></path>
  <path id="path-4brz4up7f5w-3" d="M0 -34.641L40 34.641L-40 34.641Z" fill="none" stroke="inherit" stroke-width="9.230769230769232" transform="scale(0.26)"></path>
<path id="path-4brz4up7f5w-1" d="M-35 -35L35 -35L35 35L-35 35Z" fill="none" stroke="inherit" stroke-width="9.230769230769232" transform="scale(0.26)"></path><path id="path-4brz4up7f5w-1" d="M-35 -35L35 -35L35 35L-35 35Z" fill="none" stroke="inherit" stroke-width="9.230769230769232" transform="scale(0.26)"></path><path id="path-4brz4up7f5w-3" d="M0 -34.641L40 34.641L-40 34.641Z" fill="none" stroke="inherit" stroke-width="9.230769230769232" transform="scale(0.26)"></path><path id="path-4brz4up7f5w-2" d="M0 -37A37 37 0 0 1 0 37A37 37 0 0 1 0 -37" fill="none" stroke="inherit" stroke-width="9.230769230769232" transform="scale(0.26)"></path><path id="path-4brz4up7f5w-2" d="M0 -37A37 37 0 0 1 0 37A37 37 0 0 1 0 -37" fill="none" stroke="inherit" stroke-width="9.230769230769232" transform="scale(0.26)"></path><path id="path-4brz4up7f5w-1" d="M-35 -35L35 -35L35 35L-35 35Z" fill="none" stroke="inherit" stroke-width="9.230769230769232" transform="scale(0.26)"></path><path id="path-4brz4up7f5w-1" d="M-35 -35L35 -35L35 35L-35 35Z" fill="none" stroke="inherit" stroke-width="9.230769230769232" transform="scale(0.26)"></path><path id="path-4brz4up7f5w-2" d="M0 -37A37 37 0 0 1 0 37A37 37 0 0 1 0 -37" fill="none" stroke="inherit" stroke-width="9.230769230769232" transform="scale(0.26)"></path><path id="path-4brz4up7f5w-3" d="M0 -34.641L40 34.641L-40 34.641Z" fill="none" stroke="inherit" stroke-width="9.230769230769232" transform="scale(0.26)"></path><path id="path-4brz4up7f5w-3" d="M0 -34.641L40 34.641L-40 34.641Z" fill="none" stroke="inherit" stroke-width="9.230769230769232" transform="scale(0.26)"></path><path id="path-4brz4up7f5w-2" d="M0 -37A37 37 0 0 1 0 37A37 37 0 0 1 0 -37" fill="none" stroke="inherit" stroke-width="9.230769230769232" transform="scale(0.26)"></path><path id="path-4brz4up7f5w-1" d="M-35 -35L35 -35L35 35L-35 35Z" fill="none" stroke="inherit" stroke-width="9.230769230769232" transform="scale(0.26)"></path><path id="path-4brz4up7f5w-3" d="M0 -34.641L40 34.641L-40 34.641Z" fill="none" stroke="inherit" stroke-width="9.230769230769232" transform="scale(0.26)"></path><path id="path-4brz4up7f5w-2" d="M0 -37A37 37 0 0 1 0 37A37 37 0 0 1 0 -37" fill="none" stroke="inherit" stroke-width="9.230769230769232" transform="scale(0.26)"></path><path id="path-4brz4up7f5w-3" d="M0 -34.641L40 34.641L-40 34.641Z" fill="none" stroke="inherit" stroke-width="9.230769230769232" transform="scale(0.26)"></path><path id="path-4brz4up7f5w-2" d="M0 -37A37 37 0 0 1 0 37A37 37 0 0 1 0 -37" fill="none" stroke="inherit" stroke-width="9.230769230769232" transform="scale(0.26)"></path><path id="path-4brz4up7f5w-3" d="M0 -34.641L40 34.641L-40 34.641Z" fill="none" stroke="inherit" stroke-width="9.230769230769232" transform="scale(0.26)"></path><path id="path-4brz4up7f5w-1" d="M-35 -35L35 -35L35 35L-35 35Z" fill="none" stroke="inherit" stroke-width="9.230769230769232" transform="scale(0.26)"></path><path id="path-4brz4up7f5w-3" d="M0 -34.641L40 34.641L-40 34.641Z" fill="none" stroke="inherit" stroke-width="9.230769230769232" transform="scale(0.26)"></path><path id="path-4brz4up7f5w-2" d="M0 -37A37 37 0 0 1 0 37A37 37 0 0 1 0 -37" fill="none" stroke="inherit" stroke-width="9.230769230769232" transform="scale(0.26)"></path></defs><path id="path0" d="M 105.35685294593488 775.6350094829121
c 0 58.94989087459276 -14.423909469315248 16.93241546397877 -31.35632493329402 16.93241546397877
S 42.64420307934684 834.5849003575048 42.64420307934684 775.6350094829121
s 14.423909469315248 -16.93241546397877 31.35632493329402 -16.93241546397877
S 105.35685294593488 716.6851186083194 105.35685294593488 775.6350094829121
z" fill="none" stroke="none"></path>
<use xlink:href="#path-4brz4up7f5w-1" x="0" y="0" stroke="#ABABAB">
  <animateMotion begin="-0.5772266152843497s" dur="10s" keyPoints="1;0" keyTimes="0;1" repeatCount="indefinite" calcMode="linear">
    <mpath xlink:href="#path0"></mpath>
  </animateMotion>
</use><path id="path1" d="M 155.6110039092862 355.59942405208824
c 0 24.26047537761944 -5.936073762609011 6.968434416975797 -12.90450817958481 6.968434416975797
S 129.8019875501166 379.8598994297077 129.8019875501166 355.59942405208824
s 5.936073762609011 -6.968434416975797 12.90450817958481 -6.968434416975797
S 155.6110039092862 331.3389486744688 155.6110039092862 355.59942405208824
z" fill="none" stroke="none"></path>
<use xlink:href="#path-4brz4up7f5w-1" x="0" y="0" stroke="#7D0000">
  <animateMotion begin="-2.9590075442342467s" dur="10s" keyPoints="1;0" keyTimes="0;1" repeatCount="indefinite" calcMode="linear">
    <mpath xlink:href="#path1"></mpath>
  </animateMotion>
</use><path id="path2" d="M 293.4164889463557 483.7945593746729
c 0 50.70435697738022 -12.406385217869627 14.564017429673042 -26.97040264754267 14.564017429673042
S 239.47568365127032 534.4989163520531 239.47568365127032 483.7945593746729
s 12.406385217869627 -14.564017429673042 26.97040264754267 -14.564017429673042
S 293.4164889463557 433.09020239729267 293.4164889463557 483.7945593746729
z" fill="none" stroke="none"></path>
<use xlink:href="#path-4brz4up7f5w-3" x="0" y="0" stroke="#ABABAB">
  <animateMotion begin="-6.904150513705531s" dur="10s" keyPoints="1;0" keyTimes="0;1" repeatCount="indefinite" calcMode="linear">
    <mpath xlink:href="#path2"></mpath>
  </animateMotion>
</use><path id="path3" d="M 361.60633006993754 517.0010125097325
c 0 65.33848416080926 -15.98707591168737 18.767436939806917 -34.75451285149428 18.767436939806917
S 292.097304366949 582.3394966705417 292.097304366949 517.0010125097325
s 15.98707591168737 -18.767436939806917 34.75451285149428 -18.767436939806917
S 361.60633006993754 451.6625283489233 361.60633006993754 517.0010125097325
z" fill="none" stroke="none"></path>
<use xlink:href="#path-4brz4up7f5w-2" x="0" y="0" stroke="#7D0000">
  <animateMotion begin="-2.7529786954581903s" dur="10s" keyPoints="1;0" keyTimes="0;1" repeatCount="indefinite" calcMode="linear">
    <mpath xlink:href="#path3"></mpath>
  </animateMotion>
</use><path id="path4" d="M 444.47204726939754 494.73336723856914
c 0 65.36231138409383 -15.992905976959126 18.774280929473758 -34.76718690643288 18.774280929473758
S 374.9376734565318 560.095678622663 374.9376734565318 494.73336723856914
s 15.992905976959126 -18.774280929473758 34.76718690643288 -18.774280929473758
S 444.47204726939754 429.37105585447534 444.47204726939754 494.73336723856914
z" fill="none" stroke="none"></path>
<use xlink:href="#path-4brz4up7f5w-2" x="0" y="0" stroke="#7D0000">
  <animateMotion begin="-6.050112484174425s" dur="10s" keyPoints="0;1" keyTimes="0;1" repeatCount="indefinite" calcMode="linear">
    <mpath xlink:href="#path4"></mpath>
  </animateMotion>
</use><path id="path5" d="M 537.9887390091868 180.66825240748355
c 0 50.88783032310095 -12.451277632248102 14.616717220465166 -27.06799485271327 14.616717220465166
S 483.85274930376033 231.5560827305845 483.85274930376033 180.66825240748355
s 12.451277632248102 -14.616717220465166 27.06799485271327 -14.616717220465166
S 537.9887390091868 129.7804220843826 537.9887390091868 180.66825240748355
z" fill="none" stroke="none"></path>
<use xlink:href="#path-4brz4up7f5w-1" x="0" y="0" stroke="#ABABAB">
  <animateMotion begin="-0.3598107758152702s" dur="10s" keyPoints="0;1" keyTimes="0;1" repeatCount="indefinite" calcMode="linear">
    <mpath xlink:href="#path5"></mpath>
  </animateMotion>
</use><path id="path6" d="M 632.1738522335347 110.51735671489524
c 0 33.415859671216126 -8.176220983382668 9.598172458753568 -17.774393442136237 9.598172458753568
S 596.6250653492623 143.93321638611138 596.6250653492623 110.51735671489524
s 8.176220983382668 -9.598172458753568 17.774393442136237 -9.598172458753568
S 632.1738522335347 77.10149704367912 632.1738522335347 110.51735671489524
z" fill="none" stroke="none"></path>
<use xlink:href="#path-4brz4up7f5w-1" x="0" y="0" stroke="#B84A4A">
  <animateMotion begin="-1.358724351982692s" dur="10s" keyPoints="0;1" keyTimes="0;1" repeatCount="indefinite" calcMode="linear">
    <mpath xlink:href="#path6"></mpath>
  </animateMotion>
</use><path id="path7" d="M 750.9809202630448 762.7392188856929
c 0 65.06394057714826 -15.919900353983081 18.688578676414924 -34.608479030398 18.688578676414924
S 681.7639622022488 827.8031594628412 681.7639622022488 762.7392188856929
s 15.919900353983081 -18.688578676414924 34.608479030398 -18.688578676414924
S 750.9809202630448 697.6752783085446 750.9809202630448 762.7392188856929
z" fill="none" stroke="none"></path>
<use xlink:href="#path-4brz4up7f5w-2" x="0" y="0" stroke="#B84A4A">
  <animateMotion begin="-3.5654673678461424s" dur="10s" keyPoints="0;1" keyTimes="0;1" repeatCount="indefinite" calcMode="linear">
    <mpath xlink:href="#path7"></mpath>
  </animateMotion>
</use><path id="path8" d="M 819.827080429917 254.2717862763741
c 0 36.517298828986185 -8.935083756028533 10.489011365772628 -19.424095121801162 10.489011365772628
S 780.9788901863146 290.7890851053603 780.9788901863146 254.2717862763741
s 8.935083756028533 -10.489011365772628 19.424095121801162 -10.489011365772628
S 819.827080429917 217.7544874473879 819.827080429917 254.2717862763741
z" fill="none" stroke="none"></path>
<use xlink:href="#path-4brz4up7f5w-3" x="0" y="0" stroke="#ABABAB">
  <animateMotion begin="-7.760562563458954s" dur="10s" keyPoints="1;0" keyTimes="0;1" repeatCount="indefinite" calcMode="linear">
    <mpath xlink:href="#path8"></mpath>
  </animateMotion>
</use><path id="path9" d="M 888.0191320504694 521.0568751024601
c 0 20.127355353172 -4.924778437478255 5.7812616439962135 -10.706040081474468 5.7812616439962135
S 866.6070518875204 541.1842304556321 866.6070518875204 521.0568751024601
s 4.924778437478255 -5.7812616439962135 10.706040081474468 -5.7812616439962135
S 888.0191320504694 500.92951974928815 888.0191320504694 521.0568751024601
z" fill="none" stroke="none"></path>
<use xlink:href="#path-4brz4up7f5w-3" x="0" y="0" stroke="#ABABAB">
  <animateMotion begin="-5.1129146190244645s" dur="10s" keyPoints="1;0" keyTimes="0;1" repeatCount="indefinite" calcMode="linear">
    <mpath xlink:href="#path9"></mpath>
  </animateMotion>
</use><path id="path10" d="M 1042.6388680534258 879.0372395017707
c 0 29.09377215546635 -7.11868893165666 8.35672178933608 -15.47541072099274 8.35672178933608
S 1011.6880466114402 908.1310116572371 1011.6880466114402 879.0372395017707
s 7.11868893165666 -8.35672178933608 15.47541072099274 -8.35672178933608
S 1042.6388680534258 849.9434673463044 1042.6388680534258 879.0372395017707
z" fill="none" stroke="none"></path>
<use xlink:href="#path-4brz4up7f5w-2" x="0" y="0" stroke="#ABABAB">
  <animateMotion begin="-7.909987539885268s" dur="10s" keyPoints="0;1" keyTimes="0;1" repeatCount="indefinite" calcMode="linear">
    <mpath xlink:href="#path10"></mpath>
  </animateMotion>
</use><path id="path11" d="M 1114.1112203588968 1057.9062408839786
c 0 20.66675622221215 -5.056759501179568 5.936195936167319 -10.992955437346888 5.936195936167319
S 1092.1253094842032 1078.5729971061908 1092.1253094842032 1057.9062408839786
s 5.056759501179568 -5.936195936167319 10.992955437346888 -5.936195936167319
S 1114.1112203588968 1037.2394846617665 1114.1112203588968 1057.9062408839786
z" fill="none" stroke="none"></path>
<use xlink:href="#path-4brz4up7f5w-1" x="0" y="0" stroke="#7D0000">
  <animateMotion begin="-0.1924789052064524s" dur="10s" keyPoints="1;0" keyTimes="0;1" repeatCount="indefinite" calcMode="linear">
    <mpath xlink:href="#path11"></mpath>
  </animateMotion>
</use><path id="path12" d="M 1222.0347501937808 559.8002026421224
c 0 28.744316304346466 -7.03318377659541 8.256346172525049 -15.28952994912046 8.256346172525049
S 1191.45569029554 588.5445189464689 1191.45569029554 559.8002026421224
s 7.03318377659541 -8.256346172525049 15.28952994912046 -8.256346172525049
S 1222.0347501937808 531.0558863377759 1222.0347501937808 559.8002026421224
z" fill="none" stroke="none"></path>
<use xlink:href="#path-4brz4up7f5w-3" x="0" y="0" stroke="#7D0000">
  <animateMotion begin="-8.770501833546533s" dur="10s" keyPoints="1;0" keyTimes="0;1" repeatCount="indefinite" calcMode="linear">
    <mpath xlink:href="#path12"></mpath>
  </animateMotion>
</use><path id="path13" d="M 1260.8830504720706 311.7102959168083
c 0 36.29199143748523 -8.879955351725108 10.424295412894695 -19.304250764619802 10.424295412894695
S 1222.274548942831 348.00228735429357 1222.274548942831 311.7102959168083
s 8.879955351725108 -10.424295412894695 19.304250764619802 -10.424295412894695
S 1260.8830504720706 275.41830447932307 1260.8830504720706 311.7102959168083
z" fill="none" stroke="none"></path>
<use xlink:href="#path-4brz4up7f5w-2" x="0" y="0" stroke="#B84A4A">
  <animateMotion begin="-9.19423953584269s" dur="10s" keyPoints="0;1" keyTimes="0;1" repeatCount="indefinite" calcMode="linear">
    <mpath xlink:href="#path13"></mpath>
  </animateMotion>
</use><path id="path14" d="M 1451.4481479958995 577.165147656423
c 0 43.30593317670942 -10.596132585790603 12.438938252884622 -23.035070838675225 12.438938252884622
S 1405.378006318549 620.4710808331324 1405.378006318549 577.165147656423
s 10.596132585790603 -12.438938252884622 23.035070838675225 -12.438938252884622
S 1451.4481479958995 533.8592144797135 1451.4481479958995 577.165147656423
z" fill="none" stroke="none"></path>
<use xlink:href="#path-4brz4up7f5w-3" x="0" y="0" stroke="#ABABAB">
  <animateMotion begin="-4.910876163855946s" dur="10s" keyPoints="0;1" keyTimes="0;1" repeatCount="indefinite" calcMode="linear">
    <mpath xlink:href="#path14"></mpath>
  </animateMotion>
</use><path id="path15" d="M 1447.2471439746967 130.75640766502312
c 0 19.699133697424465 -4.820000798305986 5.658261806707028 -10.478262605013013 5.658261806707028
S 1426.2906187646706 150.45554136244758 1426.2906187646706 130.75640766502312
s 4.820000798305986 -5.658261806707028 10.478262605013013 -5.658261806707028
S 1447.2471439746967 111.05727396759866 1447.2471439746967 130.75640766502312
z" fill="none" stroke="none"></path>
<use xlink:href="#path-4brz4up7f5w-2" x="0" y="0" stroke="#ABABAB">
  <animateMotion begin="-4.634156554889319s" dur="10s" keyPoints="0;1" keyTimes="0;1" repeatCount="indefinite" calcMode="linear">
    <mpath xlink:href="#path15"></mpath>
  </animateMotion>
</use><path id="path16" d="M 1567.6007596345146 503.0542618562394
c 0 36.51388509485728 -8.934248480656569 10.488030825118582 -19.42227930577515 10.488030825118582
S 1528.7562010229642 539.5681469510967 1528.7562010229642 503.0542618562394
s 8.934248480656569 -10.488030825118582 19.42227930577515 -10.488030825118582
S 1567.6007596345146 466.5403767613821 1567.6007596345146 503.0542618562394
z" fill="none" stroke="none"></path>
<use xlink:href="#path-4brz4up7f5w-3" x="0" y="0" stroke="#ABABAB">
  <animateMotion begin="-2.4188108147923626s" dur="10s" keyPoints="0;1" keyTimes="0;1" repeatCount="indefinite" calcMode="linear">
    <mpath xlink:href="#path16"></mpath>
  </animateMotion>
</use><path id="path17" d="M 1709.2425356491415 778.8501008469808
c 0 22.903938220392956 -5.6041550964791265 6.578790765432019 -12.182945861911145 6.578790765432019
S 1684.8766439253193 801.7540390673738 1684.8766439253193 778.8501008469808
s 5.6041550964791265 -6.578790765432019 12.182945861911145 -6.578790765432019
S 1709.2425356491415 755.9461626265878 1709.2425356491415 778.8501008469808
z" fill="none" stroke="none"></path>
<use xlink:href="#path-4brz4up7f5w-1" x="0" y="0" stroke="#B84A4A">
  <animateMotion begin="-9.168690282809457s" dur="10s" keyPoints="0;1" keyTimes="0;1" repeatCount="indefinite" calcMode="linear">
    <mpath xlink:href="#path17"></mpath>
  </animateMotion>
</use><path id="path18" d="M 1811.7554971863028 688.0297580677725
c 0 55.20205818745538 -13.506886577781634 15.855910330439311 -29.362796908220943 15.855910330439311
S 1753.0299033698611 743.2318162552278 1753.0299033698611 688.0297580677725
s 13.506886577781634 -15.855910330439311 29.362796908220943 -15.855910330439311
S 1811.7554971863028 632.8276998803171 1811.7554971863028 688.0297580677725
z" fill="none" stroke="none"></path>
<use xlink:href="#path-4brz4up7f5w-3" x="0" y="0" stroke="#ABABAB">
  <animateMotion begin="-3.2890659714059156s" dur="10s" keyPoints="0;1" keyTimes="0;1" repeatCount="indefinite" calcMode="linear">
    <mpath xlink:href="#path18"></mpath>
  </animateMotion>
</use><path id="path19" d="M 1830.581550082611 929.4399249567625
c 0 28.44615140419466 -6.960228535068905 8.170703062906977 -15.13093159797588 8.170703062906977
S 1800.3196868866594 957.8860763609572 1800.3196868866594 929.4399249567625
s 6.960228535068905 -8.170703062906977 15.13093159797588 -8.170703062906977
S 1830.581550082611 900.9937735525679 1830.581550082611 929.4399249567625
z" fill="none" stroke="none"></path>
<use xlink:href="#path-4brz4up7f5w-2" x="0" y="0" stroke="#7D0000">
  <animateMotion begin="-2.5185820911166057s" dur="10s" keyPoints="1;0" keyTimes="0;1" repeatCount="indefinite" calcMode="linear">
    <mpath xlink:href="#path19"></mpath>
  </animateMotion>
</use></g>
</svg>